<svg width="30" height="30" viewBox="0 0 30 30" fill="none" xmlns="http://www.w3.org/2000/svg">
<rect width="30" height="30" rx="15" fill="#1A43EF"/>
<path fill-rule="evenodd" clip-rule="evenodd" d="M23.1251 15C23.1251 19.4873 19.4874 23.125 15.0001 23.125C13.2701 23.125 11.6665 22.5844 10.3489 21.6628L6.87511 23.1253L8.25782 19.5356C7.38472 18.2402 6.87506 16.6796 6.87506 15C6.87506 10.5127 10.5127 6.875 15.0001 6.875C19.4874 6.875 23.1251 10.5127 23.1251 15ZM19.0534 17.0189V18.2445C19.0538 18.3583 19.0305 18.4709 18.985 18.5751C18.9394 18.6794 18.8725 18.773 18.7887 18.8499C18.7048 18.9268 18.6059 18.9854 18.4981 19.0218C18.3903 19.0583 18.2761 19.0718 18.1628 19.0616C16.9057 18.925 15.6982 18.4954 14.6372 17.8074C13.6502 17.1802 12.8133 16.3433 12.1861 15.3562C11.4957 14.2905 11.066 13.0771 10.9319 11.8144C10.9217 11.7014 10.9352 11.5875 10.9714 11.48C11.0076 11.3725 11.0658 11.2737 11.1422 11.19C11.2187 11.1062 11.3118 11.0393 11.4155 10.9934C11.5193 10.9476 11.6315 10.9239 11.7449 10.9238H12.9705C13.1687 10.9218 13.3609 10.992 13.5113 11.1213C13.6616 11.2506 13.7598 11.4301 13.7875 11.6264C13.8392 12.0186 13.9352 12.4037 14.0735 12.7744C14.1284 12.9206 14.1403 13.0795 14.1078 13.2323C14.0752 13.3851 13.9995 13.5253 13.8896 13.6364L13.3708 14.1552C13.9524 15.1779 14.7992 16.0248 15.822 16.6063L16.3408 16.0875C16.4519 15.9777 16.5921 15.902 16.7449 15.8694C16.8976 15.8368 17.0565 15.8487 17.2028 15.9037C17.5734 16.042 17.9585 16.1379 18.3507 16.1896C18.5492 16.2176 18.7304 16.3176 18.86 16.4705C18.9895 16.6234 19.0583 16.8186 19.0534 17.0189Z" fill="white"/>
</svg>
