<svg width="135" height="52" viewBox="0 0 135 52" fill="none" xmlns="http://www.w3.org/2000/svg">
<path d="M13.376 31.384C11.648 31.384 10.0373 31.1067 8.544 30.552C7.072 29.976 5.792 29.1653 4.704 28.12C3.616 27.0747 2.76267 25.848 2.144 24.44C1.54667 23.032 1.248 21.4853 1.248 19.8C1.248 18.1147 1.54667 16.568 2.144 15.16C2.76267 13.752 3.616 12.5253 4.704 11.48C5.81333 10.4347 7.104 9.63467 8.576 9.08C10.048 8.504 11.6587 8.216 13.408 8.216C15.3493 8.216 17.0987 8.55733 18.656 9.24C20.2347 9.90133 21.5573 10.8827 22.624 12.184L19.296 15.256C18.528 14.3813 17.6747 13.7307 16.736 13.304C15.7973 12.856 14.7733 12.632 13.664 12.632C12.6187 12.632 11.6587 12.8027 10.784 13.144C9.90933 13.4853 9.152 13.976 8.512 14.616C7.872 15.256 7.37067 16.0133 7.008 16.888C6.66667 17.7627 6.496 18.7333 6.496 19.8C6.496 20.8667 6.66667 21.8373 7.008 22.712C7.37067 23.5867 7.872 24.344 8.512 24.984C9.152 25.624 9.90933 26.1147 10.784 26.456C11.6587 26.7973 12.6187 26.968 13.664 26.968C14.7733 26.968 15.7973 26.7547 16.736 26.328C17.6747 25.88 18.528 25.208 19.296 24.312L22.624 27.384C21.5573 28.6853 20.2347 29.6773 18.656 30.36C17.0987 31.0427 15.3387 31.384 13.376 31.384ZM25.6545 31L35.6385 8.6H40.7585L50.7745 31H45.3345L37.1425 11.224H39.1905L30.9665 31H25.6545ZM30.6465 26.2L32.0225 22.264H43.5425L44.9505 26.2H30.6465ZM55.9785 31V8.6H65.6745C67.6798 8.6 69.4078 8.93067 70.8585 9.592C72.3092 10.232 73.4292 11.16 74.2185 12.376C75.0078 13.592 75.4025 15.0427 75.4025 16.728C75.4025 18.392 75.0078 19.832 74.2185 21.048C73.4292 22.2427 72.3092 23.16 70.8585 23.8C69.4078 24.44 67.6798 24.76 65.6745 24.76H58.8585L61.1625 22.488V31H55.9785ZM70.2185 31L64.6185 22.872H70.1545L75.8185 31H70.2185ZM61.1625 23.064L58.8585 20.632H65.3865C66.9865 20.632 68.1812 20.2907 68.9705 19.608C69.7598 18.904 70.1545 17.944 70.1545 16.728C70.1545 15.4907 69.7598 14.5307 68.9705 13.848C68.1812 13.1653 66.9865 12.824 65.3865 12.824H58.8585L61.1625 10.36V23.064ZM93.2058 31.384C91.4351 31.384 89.8031 31.1067 88.3097 30.552C86.8377 29.976 85.5471 29.1653 84.4377 28.12C83.3497 27.0747 82.4964 25.848 81.8777 24.44C81.2804 23.032 80.9817 21.4853 80.9817 19.8C80.9817 18.1147 81.2804 16.568 81.8777 15.16C82.4964 13.752 83.3604 12.5253 84.4697 11.48C85.5791 10.4347 86.8804 9.63467 88.3737 9.08C89.8671 8.504 91.5097 8.216 93.3018 8.216C95.2858 8.216 97.0671 8.54667 98.6458 9.208C100.246 9.86933 101.59 10.8293 102.678 12.088L99.3498 15.16C98.5391 14.3067 97.6538 13.6773 96.6938 13.272C95.7338 12.8453 94.6884 12.632 93.5577 12.632C92.4697 12.632 91.4777 12.8027 90.5817 13.144C89.6858 13.4853 88.9071 13.976 88.2457 14.616C87.6057 15.256 87.1044 16.0133 86.7417 16.888C86.4004 17.7627 86.2297 18.7333 86.2297 19.8C86.2297 20.8453 86.4004 21.8053 86.7417 22.68C87.1044 23.5547 87.6057 24.3227 88.2457 24.984C88.9071 25.624 89.6751 26.1147 90.5498 26.456C91.4458 26.7973 92.4271 26.968 93.4937 26.968C94.5177 26.968 95.5097 26.808 96.4697 26.488C97.4511 26.1467 98.4004 25.5813 99.3178 24.792L102.262 28.536C101.046 29.4533 99.6271 30.1573 98.0058 30.648C96.4058 31.1387 94.8058 31.384 93.2058 31.384ZM97.5258 27.864V19.448H102.262V28.536L97.5258 27.864ZM120.837 31.384C119.067 31.384 117.424 31.096 115.909 30.52C114.416 29.944 113.115 29.1333 112.005 28.088C110.917 27.0427 110.064 25.816 109.445 24.408C108.848 23 108.549 21.464 108.549 19.8C108.549 18.136 108.848 16.6 109.445 15.192C110.064 13.784 110.928 12.5573 112.037 11.512C113.147 10.4667 114.448 9.656 115.941 9.08C117.435 8.504 119.056 8.216 120.805 8.216C122.576 8.216 124.197 8.504 125.669 9.08C127.163 9.656 128.453 10.4667 129.541 11.512C130.651 12.5573 131.515 13.784 132.133 15.192C132.752 16.5787 133.061 18.1147 133.061 19.8C133.061 21.464 132.752 23.0107 132.133 24.44C131.515 25.848 130.651 27.0747 129.541 28.12C128.453 29.144 127.163 29.944 125.669 30.52C124.197 31.096 122.587 31.384 120.837 31.384ZM120.805 26.968C121.808 26.968 122.725 26.7973 123.557 26.456C124.411 26.1147 125.157 25.624 125.797 24.984C126.437 24.344 126.928 23.5867 127.269 22.712C127.632 21.8373 127.813 20.8667 127.813 19.8C127.813 18.7333 127.632 17.7627 127.269 16.888C126.928 16.0133 126.437 15.256 125.797 14.616C125.179 13.976 124.443 13.4853 123.589 13.144C122.736 12.8027 121.808 12.632 120.805 12.632C119.803 12.632 118.875 12.8027 118.021 13.144C117.189 13.4853 116.453 13.976 115.813 14.616C115.173 15.256 114.672 16.0133 114.309 16.888C113.968 17.7627 113.797 18.7333 113.797 19.8C113.797 20.8453 113.968 21.816 114.309 22.712C114.672 23.5867 115.163 24.344 115.781 24.984C116.421 25.624 117.168 26.1147 118.021 26.456C118.875 26.7973 119.803 26.968 120.805 26.968Z" fill="#1A43EF"/>
<path d="M5.136 48.128C4.22933 48.128 3.44533 47.9947 2.784 47.728C2.12267 47.4613 1.61067 47.0827 1.248 46.592C0.885333 46.0907 0.704 45.504 0.704 44.832C0.704 44.1707 0.874667 43.6107 1.216 43.152C1.568 42.6827 2.07467 42.3307 2.736 42.096C3.39733 41.8507 4.19733 41.728 5.136 41.728C6.07467 41.728 6.87467 41.8507 7.536 42.096C8.208 42.3307 8.72 42.6827 9.072 43.152C9.424 43.6213 9.6 44.1813 9.6 44.832C9.6 45.504 9.41867 46.0907 9.056 46.592C8.69333 47.0827 8.176 47.4613 7.504 47.728C6.832 47.9947 6.04267 48.128 5.136 48.128ZM5.136 46.832C6.032 46.832 6.73067 46.6507 7.232 46.288C7.744 45.9147 8 45.4133 8 44.784C8 44.1653 7.744 43.68 7.232 43.328C6.73067 42.9653 6.032 42.784 5.136 42.784C4.25067 42.784 3.55733 42.9653 3.056 43.328C2.55467 43.68 2.304 44.1653 2.304 44.784C2.304 45.4133 2.55467 45.9147 3.056 46.288C3.55733 46.6507 4.25067 46.832 5.136 46.832ZM5.136 42.592C4.28267 42.592 3.55733 42.48 2.96 42.256C2.36267 42.0213 1.904 41.6907 1.584 41.264C1.264 40.8267 1.104 40.3093 1.104 39.712C1.104 39.0827 1.26933 38.544 1.6 38.096C1.94133 37.6373 2.416 37.2853 3.024 37.04C3.632 36.7947 4.336 36.672 5.136 36.672C5.94667 36.672 6.656 36.7947 7.264 37.04C7.872 37.2853 8.34667 37.6373 8.688 38.096C9.02933 38.544 9.2 39.0827 9.2 39.712C9.2 40.3093 9.04 40.8267 8.72 41.264C8.4 41.6907 7.936 42.0213 7.328 42.256C6.72 42.48 5.98933 42.592 5.136 42.592ZM5.136 41.568C5.91467 41.568 6.52267 41.408 6.96 41.088C7.408 40.768 7.632 40.3307 7.632 39.776C7.632 39.2107 7.40267 38.768 6.944 38.448C6.48533 38.128 5.88267 37.968 5.136 37.968C4.38933 37.968 3.792 38.128 3.344 38.448C2.90667 38.768 2.688 39.2107 2.688 39.776C2.688 40.3307 2.90133 40.768 3.328 41.088C3.76533 41.408 4.368 41.568 5.136 41.568Z" fill="#111948"/>
<circle cx="37.75" cy="42" r="2" fill="#111948"/>
<path d="M68.9 36.672C69.9133 36.672 70.7667 36.8907 71.46 37.328C72.164 37.7653 72.6973 38.4 73.06 39.232C73.4227 40.0533 73.604 41.0613 73.604 42.256C73.604 43.5253 73.38 44.5973 72.932 45.472C72.484 46.3467 71.8653 47.008 71.076 47.456C70.2867 47.904 69.364 48.128 68.308 48.128C67.7853 48.128 67.2787 48.0747 66.788 47.968C66.308 47.8613 65.8867 47.696 65.524 47.472L66.132 46.224C66.4307 46.416 66.7613 46.5547 67.124 46.64C67.4973 46.7147 67.8867 46.752 68.292 46.752C69.4227 46.752 70.324 46.4 70.996 45.696C71.668 44.9813 72.004 43.9253 72.004 42.528C72.004 42.304 71.9933 42.0373 71.972 41.728C71.9507 41.4187 71.9027 41.1147 71.828 40.816L72.356 41.36C72.2067 41.8507 71.956 42.2667 71.604 42.608C71.2627 42.9387 70.8467 43.1893 70.356 43.36C69.876 43.52 69.348 43.6 68.772 43.6C68.036 43.6 67.38 43.4613 66.804 43.184C66.228 42.9067 65.7747 42.5173 65.444 42.016C65.1133 41.504 64.948 40.9013 64.948 40.208C64.948 39.4827 65.1187 38.8587 65.46 38.336C65.812 37.8027 66.2867 37.392 66.884 37.104C67.492 36.816 68.164 36.672 68.9 36.672ZM68.964 37.968C68.484 37.968 68.0573 38.0587 67.684 38.24C67.3107 38.4213 67.0173 38.672 66.804 38.992C66.6013 39.312 66.5 39.696 66.5 40.144C66.5 40.8053 66.7293 41.3333 67.188 41.728C67.6467 42.112 68.2653 42.304 69.044 42.304C69.556 42.304 70.004 42.208 70.388 42.016C70.7827 41.824 71.0867 41.5627 71.3 41.232C71.524 40.9013 71.636 40.5333 71.636 40.128C71.636 39.7333 71.5347 39.376 71.332 39.056C71.1293 38.736 70.8307 38.4747 70.436 38.272C70.0413 38.0693 69.5507 37.968 68.964 37.968Z" fill="#111948"/>
<circle cx="101.25" cy="42" r="2" fill="#111948"/>
<path d="M130.656 48V37.44L131.344 38.192H128.128V36.8H132.24V48H130.656Z" fill="#111948"/>
</svg>
