<svg width="30" height="30" viewBox="0 0 30 30" fill="none" xmlns="http://www.w3.org/2000/svg">
<rect width="30" height="30" rx="15" fill="#1A43EF"/>
<path fill-rule="evenodd" clip-rule="evenodd" d="M19.8893 12.2008C19.6151 12.1672 19.335 12.1499 19.0503 12.1499C15.7366 12.1499 13.0503 14.5004 13.0503 17.3999C13.0503 17.9591 13.1502 18.4979 13.3353 19.0034L13.3222 19.0034C12.3218 19.0034 11.3724 18.8213 10.5192 18.4947L8.70029 19.4999L9.2385 17.8516C7.63455 16.8278 6.60019 15.2154 6.60019 13.4017C6.60019 10.308 9.60973 7.80005 13.3222 7.80005C16.54 7.80005 19.2297 9.68417 19.8893 12.2008ZM11.1003 12.1499C10.5204 12.1499 10.0503 11.6798 10.0503 11.0999C10.0503 10.52 10.5204 10.0499 11.1003 10.0499C11.6802 10.0499 12.1503 10.52 12.1503 11.0999C12.1503 11.6798 11.6802 12.1499 11.1003 12.1499ZM14.5503 11.0999C14.5503 11.6798 15.0204 12.1499 15.6003 12.1499C16.1802 12.1499 16.6503 11.6798 16.6503 11.0999C16.6503 10.52 16.1802 10.0499 15.6003 10.0499C15.0204 10.0499 14.5503 10.52 14.5503 11.0999ZM24.6003 17.4541C24.6003 18.9368 23.7653 20.2548 22.4709 21.0907L22.9301 22.8353L21.1688 21.7121C20.5546 21.9165 19.8855 22.0288 19.1853 22.0288C16.1948 22.0288 13.7704 19.9806 13.7704 17.4541C13.7704 14.9275 16.1948 12.8793 19.1853 12.8793C22.1759 12.8793 24.6003 14.9275 24.6003 17.4541ZM20.7909 16.9167C20.2939 16.9167 19.8909 16.5137 19.8909 16.0167C19.8909 15.5196 20.2939 15.1167 20.7909 15.1167C21.288 15.1167 21.6909 15.5196 21.6909 16.0167C21.6909 16.5137 21.288 16.9167 20.7909 16.9167ZM16.4553 16.0167C16.4553 16.5137 16.8582 16.9167 17.3553 16.9167C17.8523 16.9167 18.2553 16.5137 18.2553 16.0167C18.2553 15.5196 17.8523 15.1167 17.3553 15.1167C16.8582 15.1167 16.4553 15.5196 16.4553 16.0167Z" fill="white"/>
</svg>
