<svg width="24" height="24" viewBox="0 0 24 24" fill="none" xmlns="http://www.w3.org/2000/svg">
<path fill-rule="evenodd" clip-rule="evenodd" d="M12 24C18.6274 24 24 18.6274 24 12C24 5.37258 18.6274 0 12 0C5.37258 0 0 5.37258 0 12C0 18.6274 5.37258 24 12 24ZM17.733 16.5912V14.8535C17.7401 14.5694 17.6425 14.2927 17.4588 14.0759C17.2751 13.8591 17.0181 13.7174 16.7368 13.6777C16.1807 13.6043 15.6347 13.4683 15.1091 13.2722C14.9018 13.1943 14.6765 13.1774 14.4599 13.2236C14.2433 13.2698 14.0445 13.3771 13.887 13.5329L13.1514 14.2685C11.7013 13.4439 10.5006 12.2433 9.67604 10.7932L10.4117 10.0575C10.5674 9.90006 10.6747 9.70123 10.7209 9.48462C10.7671 9.26801 10.7502 9.0427 10.6723 8.83538C10.4762 8.30987 10.3402 7.76386 10.2668 7.20777C10.2275 6.92942 10.0883 6.67487 9.87515 6.49158C9.66202 6.30828 9.3895 6.20874 9.1084 6.2115H7.37073C7.20991 6.21166 7.05087 6.24529 6.90376 6.31027C6.75664 6.37526 6.62467 6.47016 6.51624 6.58894C6.40782 6.70772 6.32531 6.84777 6.27398 7.00019C6.22264 7.1526 6.20361 7.31404 6.21808 7.47421C6.40821 9.26458 7.01739 10.985 7.99629 12.4961C8.88559 13.8956 10.0721 15.0821 11.4716 15.9714C12.9759 16.9469 14.688 17.556 16.4703 17.7496C16.631 17.7641 16.7929 17.7449 16.9457 17.6933C17.0985 17.6416 17.2389 17.5586 17.3577 17.4495C17.4766 17.3405 17.5714 17.2078 17.636 17.06C17.7006 16.9122 17.7337 16.7525 17.733 16.5912Z" fill="#1A43EF"/>
</svg>
